<svg width="9754" height="1914" viewBox="0 0 9754 1914" fill="none" xmlns="http://www.w3.org/2000/svg">
<g clip-path="url(#clip0_12:2)">
<path d="M3367.91 797.156C3346.71 797.156 3325.52 800.688 3306.09 809.519C3286.66 818.351 3269 828.948 3254.87 844.844V804.221H3193.05V1242.25H3253.1V1090.35C3269 1104.48 3286.66 1116.84 3306.09 1125.68C3325.52 1134.51 3348.48 1138.04 3369.68 1138.04C3392.64 1138.04 3417.36 1134.51 3438.56 1125.68C3480.95 1108.01 3512.74 1074.45 3530.4 1032.06C3539.23 1010.87 3542.77 989.675 3542.77 966.714C3544.53 920.792 3525.1 876.636 3493.31 844.844C3459.75 813.052 3413.83 795.39 3367.91 797.156ZM3447.39 1047.96C3426.2 1069.16 3396.17 1081.52 3366.14 1079.75C3336.12 1079.75 3306.09 1067.39 3286.66 1046.19C3265.47 1025 3253.1 994.974 3253.1 963.182C3253.1 933.156 3265.47 904.896 3286.66 885.467C3307.86 864.273 3336.12 851.909 3366.14 851.909C3429.73 851.909 3480.95 901.364 3482.71 964.948C3482.71 966.714 3482.71 966.714 3482.71 968.48C3480.95 998.506 3468.58 1028.53 3447.39 1047.96ZM2560.74 844.844C2544.84 828.948 2525.42 816.584 2504.22 807.753C2483.03 798.922 2460.07 795.39 2435.34 795.39C2412.38 795.39 2389.42 800.688 2368.22 809.519C2347.03 818.351 2327.6 832.48 2311.7 850.143C2295.81 866.039 2285.21 883.701 2276.38 903.13C2260.48 945.519 2260.48 991.441 2278.14 1032.06C2286.97 1053.26 2299.34 1072.69 2315.23 1088.58C2331.13 1104.48 2350.56 1118.61 2371.75 1127.44C2392.95 1136.27 2415.91 1139.81 2440.64 1139.81C2463.6 1139.81 2486.56 1134.51 2509.52 1125.68C2530.71 1115.08 2550.14 1102.71 2567.81 1085.05C2583.7 1069.16 2594.3 1049.73 2603.13 1030.3C2611.96 1009.1 2615.49 987.909 2615.49 964.948C2615.49 943.753 2610.19 920.792 2601.36 901.364C2590.77 878.403 2576.64 858.974 2560.74 844.844ZM2518.35 1047.96C2497.16 1069.16 2468.9 1081.52 2440.64 1079.75C2410.61 1079.75 2382.35 1069.16 2361.16 1047.96C2339.96 1026.77 2327.6 996.74 2329.36 966.714C2327.6 936.688 2339.96 906.662 2361.16 885.467C2405.31 841.312 2475.96 841.312 2520.12 885.467C2541.31 906.662 2551.91 936.688 2551.91 966.714C2550.14 996.74 2539.55 1025 2518.35 1047.96ZM2055.6 853.675C2076.79 853.675 2097.99 858.974 2115.65 867.805C2133.31 878.403 2147.44 894.299 2156.27 911.961H2223.39C2212.79 876.636 2189.83 846.61 2161.57 825.416C2133.31 804.221 2097.99 793.623 2060.9 795.39C2036.17 795.39 2013.21 800.688 1992.01 809.519C1970.82 818.351 1949.62 832.48 1933.73 850.143C1917.83 866.039 1907.23 883.701 1898.4 904.896C1889.57 924.325 1886.04 945.519 1886.04 966.714C1886.04 989.675 1891.34 1010.87 1900.17 1032.06C1909 1051.49 1921.36 1070.92 1937.26 1086.82C1953.16 1102.71 1972.58 1116.84 1993.78 1125.68C2014.97 1134.51 2037.94 1138.04 2062.66 1138.04C2097.99 1139.81 2135.08 1129.21 2163.34 1108.01C2193.36 1085.05 2214.56 1055.03 2226.92 1019.7H2159.81C2150.97 1039.13 2136.84 1055.03 2119.18 1065.62C2101.52 1076.22 2082.09 1081.52 2060.9 1081.52C2030.87 1081.52 2002.61 1070.92 1981.42 1049.73C1960.22 1028.53 1947.86 998.506 1949.62 968.48C1949.62 938.454 1960.22 908.429 1981.42 887.234C1999.08 864.273 2027.34 851.909 2055.6 853.675ZM3004.07 800.688C2982.87 800.688 2959.91 804.221 2940.48 814.818C2922.82 825.416 2908.69 839.545 2899.86 857.208C2891.03 839.545 2876.9 825.416 2859.23 814.818C2839.81 805.987 2818.61 800.688 2797.42 800.688C2781.52 800.688 2763.86 804.221 2749.73 811.286C2735.6 818.351 2721.47 830.714 2710.87 843.078V804.221H2657.88V1129.21H2716.17V963.182C2714.4 933.156 2719.7 904.896 2733.83 878.403C2746.2 860.74 2769.16 850.143 2792.12 851.909C2813.31 850.143 2834.51 860.74 2846.87 878.403C2861 904.896 2866.3 934.922 2864.53 964.948V1129.21H2922.82V959.649C2921.05 931.39 2926.35 901.364 2940.48 876.636C2968.74 846.61 3016.43 843.078 3046.45 871.338C3048.22 873.104 3048.22 873.104 3049.99 874.87C3064.12 894.299 3071.18 917.26 3069.42 940.221V1129.21H3129.47V931.39C3131.23 896.065 3118.87 860.74 3094.14 836.013C3071.18 809.519 3037.62 797.156 3004.07 800.688ZM4819.75 844.844C4803.86 828.948 4786.2 818.351 4766.77 809.519C4747.34 800.688 4724.38 797.156 4703.18 797.156C4680.22 797.156 4657.26 800.688 4634.3 809.519C4593.68 827.182 4560.12 860.74 4542.45 901.364C4533.62 922.558 4530.09 943.753 4530.09 966.714C4528.33 1012.64 4547.75 1056.79 4581.31 1088.58C4614.87 1122.14 4660.79 1138.04 4706.71 1138.04C4727.91 1138.04 4749.1 1134.51 4768.53 1125.68C4787.96 1116.84 4805.62 1106.25 4819.75 1090.35V1129.21H4881.57V804.221H4819.75V844.844ZM4789.73 1047.96C4768.53 1069.16 4740.27 1081.52 4710.25 1081.52C4646.66 1083.29 4595.44 1032.06 4593.68 970.247C4593.68 968.48 4593.68 966.714 4593.68 966.714C4593.68 936.688 4606.04 908.429 4627.23 887.234C4648.43 866.039 4678.46 853.675 4708.48 855.441C4738.51 855.441 4768.53 867.805 4789.73 889C4810.92 910.195 4823.29 940.221 4823.29 970.247C4823.29 998.506 4810.92 1026.77 4789.73 1047.96ZM5042.3 811.286C5028.17 818.351 5015.81 830.714 5008.74 843.078V804.221H4952.22V1129.21H5012.27V949.052C5010.51 926.091 5015.81 903.13 5029.94 883.701C5045.83 867.805 5067.03 860.74 5088.22 860.74V798.922C5072.33 798.922 5056.43 802.454 5042.3 811.286ZM4424.12 940.221L4402.92 931.39C4369.36 919.026 4353.47 904.896 4353.47 887.234C4353.47 876.636 4357 867.805 4364.07 860.74C4371.13 853.675 4381.73 850.143 4390.56 850.143C4401.16 850.143 4411.75 853.675 4418.82 860.74C4425.88 867.805 4431.18 878.403 4431.18 889H4489.47C4489.47 864.273 4478.87 839.545 4461.21 820.117C4441.78 802.454 4417.05 793.623 4392.32 795.39C4365.83 795.39 4341.1 804.221 4321.68 823.649C4302.25 841.312 4293.42 866.039 4293.42 890.766C4293.42 904.896 4295.18 919.026 4302.25 931.39C4309.31 943.753 4318.14 954.351 4328.74 963.182C4342.87 972.013 4358.77 979.078 4374.66 984.377C4383.49 987.909 4390.56 989.675 4395.86 991.441C4408.22 994.974 4418.82 1002.04 4427.65 1010.87C4434.71 1019.7 4438.25 1028.53 4438.25 1039.13C4438.25 1051.49 4432.95 1063.86 4424.12 1070.92C4415.29 1079.75 4401.16 1083.29 4388.79 1083.29C4374.66 1083.29 4360.53 1077.99 4351.7 1065.62C4341.1 1053.26 4335.81 1039.13 4337.57 1023.23H4281.05C4281.05 1053.26 4291.65 1083.29 4312.84 1106.25C4332.27 1127.44 4360.53 1138.04 4388.79 1136.27C4417.05 1136.27 4445.31 1125.68 4464.74 1108.01C4484.17 1088.58 4496.53 1062.09 4494.77 1035.6C4496.53 1014.4 4489.47 993.208 4478.87 975.545C4464.74 959.649 4445.31 945.519 4424.12 940.221ZM3887.18 857.208C3873.05 843.078 3855.39 828.948 3837.73 820.117C3821.83 811.286 3804.17 804.221 3786.51 800.688C3758.25 795.39 3728.22 795.39 3701.73 804.221C3673.47 811.286 3648.74 827.182 3629.31 846.61C3611.65 862.506 3599.29 881.935 3590.45 903.13C3581.62 924.325 3578.09 947.286 3579.86 970.247C3579.86 991.442 3585.16 1012.64 3593.99 1032.06C3613.42 1072.69 3646.97 1106.25 3689.36 1122.14C3710.56 1130.97 3733.52 1136.27 3756.48 1136.27C3779.44 1136.27 3802.4 1132.74 3823.6 1125.68C3841.26 1118.61 3855.39 1109.78 3869.52 1097.42V1014.4C3869.52 1012.64 3869.52 1009.1 3865.99 1012.64C3858.92 1025 3848.33 1035.6 3837.73 1046.19C3818.3 1063.86 3793.57 1076.22 3768.84 1077.99C3742.35 1079.75 3715.86 1072.69 3692.9 1056.79L3894.25 862.506L3887.18 857.208ZM3655.81 1017.93C3641.68 996.74 3636.38 972.013 3639.91 947.286C3643.44 922.558 3654.04 901.364 3671.7 883.701C3689.36 866.039 3710.56 855.441 3735.29 853.675C3761.78 851.909 3786.51 857.208 3807.7 871.338L3655.81 1017.93ZM4095.6 798.922C4077.94 798.922 4060.27 802.454 4044.38 809.519C4028.48 816.584 4014.35 827.182 4001.99 841.312V804.221H3943.7V1129.21H4005.52V980.844C4005.52 934.922 4012.58 903.13 4024.95 883.701C4056.74 846.61 4113.26 844.844 4150.35 876.636L4152.12 878.403C4168.01 901.364 4175.08 927.857 4171.55 954.351V1127.44H4231.6V943.753C4235.13 904.896 4221 866.039 4196.27 836.013C4171.55 809.519 4134.46 795.39 4095.6 798.922ZM6087.91 512.792H6024.33V804.221H5983.7V512.792H5928.95V479.234H5983.7V449.208C5983.7 392.688 5999.6 353.831 6063.18 353.831C6073.78 353.831 6086.14 353.831 6096.74 355.597V389.156C6087.91 387.39 6077.31 385.623 6068.48 385.623C6024.33 385.623 6026.09 413.883 6024.33 449.208V477.468H6087.91V512.792ZM6388.17 804.221H6351.08V745.935H6349.31C6328.12 788.325 6283.96 814.818 6238.04 814.818C6156.79 814.818 6123.23 767.13 6123.23 691.182V479.234H6163.86V691.182C6165.62 749.467 6188.59 781.26 6250.4 781.26C6319.29 781.26 6347.55 717.675 6347.55 650.558V479.234H6386.4L6388.17 804.221ZM6462.35 479.234H6502.97V535.753H6504.74C6522.4 495.13 6563.03 468.636 6608.95 470.403C6700.79 470.403 6727.29 518.091 6727.29 595.805V804.221H6688.43V601.104C6688.43 544.584 6670.77 502.195 6605.42 502.195C6540.07 502.195 6504.74 549.883 6502.97 613.467V804.221H6462.35V479.234ZM7087.6 804.221H7050.51V742.403H7048.74C7031.08 784.792 6979.86 813.052 6932.17 813.052C6833.26 813.052 6785.57 733.571 6785.57 641.727C6785.57 549.883 6833.26 470.403 6932.17 470.403C6981.62 468.636 7025.78 496.896 7045.21 541.052H7046.97V353.831H7085.83V804.221H7087.6ZM6933.94 779.493C7018.71 779.493 7048.74 708.844 7048.74 641.727C7048.74 574.61 7018.71 503.961 6933.94 503.961C6857.99 503.961 6827.96 574.61 6827.96 643.493C6827.96 712.377 6857.99 779.493 6933.94 779.493ZM7158.25 578.143C7161.78 502.195 7216.53 468.636 7290.71 468.636C7349 468.636 7410.82 486.299 7410.82 572.844V745.935C7409.05 758.299 7417.88 768.896 7428.48 770.662C7430.25 770.662 7432.01 770.662 7433.78 770.662C7437.31 770.662 7442.61 768.896 7446.14 768.896V802.454C7437.31 804.221 7428.48 805.987 7419.65 804.221C7379.03 804.221 7373.73 781.26 7373.73 747.701H7371.96C7343.7 790.091 7315.44 813.052 7253.62 813.052C7191.81 813.052 7144.12 783.026 7144.12 717.675C7144.12 625.831 7232.43 622.299 7318.98 613.467C7352.53 609.935 7370.2 604.636 7370.2 569.312C7370.2 516.325 7331.34 502.195 7285.42 502.195C7239.49 502.195 7198.87 525.156 7198.87 578.143H7158.25ZM7370.2 625.831C7363.13 634.662 7345.47 638.195 7334.87 639.961C7267.75 652.325 7182.97 650.558 7182.97 714.143C7184.74 751.234 7216.53 779.493 7253.62 777.727H7255.39C7315.44 777.727 7370.2 738.87 7368.43 675.286V625.831H7370.2ZM7719.91 581.675C7707.55 532.221 7679.29 503.961 7626.3 503.961C7550.35 503.961 7511.49 572.844 7511.49 643.493C7511.49 714.143 7548.59 781.26 7626.3 781.26C7677.52 779.493 7718.14 738.87 7721.68 689.416H7762.3C7751.7 767.13 7700.48 814.818 7628.07 814.818C7529.16 814.818 7474.4 735.338 7474.4 643.493C7474.4 551.649 7529.16 472.169 7628.07 472.169C7696.95 472.169 7751.7 509.26 7760.53 583.442L7719.91 581.675ZM7817.05 353.831H7857.68V417.416H7817.05V353.831ZM7817.05 479.234H7857.68V804.221H7817.05V479.234ZM8223.29 641.727C8223.29 735.338 8168.53 813.052 8069.62 813.052C7970.72 813.052 7915.96 733.571 7915.96 641.727C7915.96 549.883 7970.72 470.403 8069.62 470.403C8168.53 470.403 8225.05 548.117 8223.29 641.727ZM7954.82 641.727C7954.82 710.61 7991.91 779.493 8069.62 779.493C8147.34 779.493 8184.43 710.61 8184.43 641.727C8184.43 572.844 8147.34 503.961 8069.62 503.961C7991.91 503.961 7956.59 572.844 7954.82 641.727ZM8066.09 433.312H8032.53L8099.65 345H8149.1L8066.09 433.312ZM8283.34 479.234H8322.2V535.753H8323.96C8341.62 495.13 8384.01 468.636 8428.17 470.403C8520.01 470.403 8546.51 518.091 8546.51 595.805V804.221H8505.88V601.104C8505.88 544.584 8488.22 502.195 8422.87 502.195C8357.52 502.195 8322.2 549.883 8320.43 613.467V804.221H8281.57V479.234H8283.34ZM6192.12 1454.19H6155.03V1395.91H6153.26C6132.07 1438.3 6087.91 1464.79 6040.22 1463.03C5958.97 1463.03 5925.42 1415.34 5925.42 1339.39V1127.44H5966.04V1339.39C5967.81 1397.68 5990.77 1429.47 6052.59 1429.47C6121.47 1429.47 6149.73 1365.88 6149.73 1298.77V1129.21H6190.35L6192.12 1454.19ZM6266.3 1129.21H6305.16V1185.73H6306.92C6324.58 1145.1 6365.21 1118.61 6411.13 1120.38C6502.98 1120.38 6529.47 1168.06 6529.47 1245.78V1454.19H6488.84V1251.08C6488.84 1194.56 6471.18 1152.17 6405.83 1152.17C6340.48 1152.17 6305.16 1199.86 6303.39 1263.44V1452.43H6266.3V1129.21ZM6605.42 1003.81H6644.27V1067.39H6605.42V1003.81ZM6605.42 1129.21H6644.27V1454.19H6605.42V1129.21ZM6684.9 1129.21H6729.05L6831.49 1415.34L6932.17 1129.21H6972.79L6850.92 1454.19H6808.53L6684.9 1129.21ZM7036.38 1302.3C7036.38 1360.58 7068.17 1429.47 7144.12 1429.47C7202.4 1429.47 7234.2 1395.91 7246.56 1346.45H7285.42C7267.75 1420.64 7225.36 1463.03 7144.12 1463.03C7039.91 1463.03 6997.52 1383.55 6997.52 1291.7C6997.52 1206.92 7041.68 1120.38 7144.12 1120.38C7246.56 1120.38 7290.71 1212.22 7287.18 1302.3H7036.38ZM7246.56 1268.74C7244.79 1208.69 7207.7 1152.17 7142.35 1152.17C7077 1152.17 7041.68 1208.69 7034.61 1268.74H7246.56ZM7340.17 1129.21H7377.26V1205.16H7379.03C7396.69 1153.93 7447.91 1120.38 7502.66 1123.91V1164.53C7440.85 1159.23 7386.09 1205.16 7380.79 1266.97C7380.79 1272.27 7380.79 1277.57 7380.79 1281.1V1454.19H7341.94L7340.17 1129.21ZM7732.27 1224.58C7730.51 1175.13 7691.65 1153.93 7647.49 1153.93C7612.17 1153.93 7569.78 1168.06 7569.78 1210.45C7569.78 1245.78 7610.4 1258.14 7636.9 1265.21L7689.88 1277.57C7735.81 1284.64 7783.49 1311.13 7783.49 1367.65C7783.49 1438.3 7712.85 1464.79 7652.79 1464.79C7576.85 1464.79 7525.62 1429.47 7518.56 1349.99H7559.18C7562.72 1402.97 7601.57 1431.23 7654.56 1431.23C7691.65 1431.23 7742.87 1415.34 7742.87 1369.42C7742.87 1332.32 7707.55 1319.96 7672.22 1311.13L7621 1300.53C7569.78 1286.4 7530.92 1268.74 7530.92 1213.99C7530.92 1146.87 7596.27 1122.14 7652.79 1122.14C7718.14 1122.14 7769.36 1155.7 7771.13 1226.35L7732.27 1224.58ZM7841.78 1003.81H7880.64V1067.39H7841.78V1003.81ZM7841.78 1129.21H7880.64V1454.19H7841.78V1129.21ZM8020.17 1129.21H8087.29V1162.77H8020.17V1381.78C8020.17 1408.27 8023.7 1422.4 8051.96 1424.17C8062.56 1424.17 8074.92 1424.17 8085.52 1422.4V1455.96C8073.16 1455.96 8062.56 1457.73 8050.2 1457.73C7997.21 1457.73 7979.55 1440.06 7979.55 1385.31V1162.77H7923.03V1129.21H7979.55V1032.06H8018.4L8020.17 1129.21ZM8140.27 1228.12C8143.81 1152.17 8196.79 1118.61 8272.74 1118.61C8331.03 1118.61 8392.84 1136.27 8392.84 1222.82V1395.91C8391.08 1408.27 8399.91 1418.87 8410.51 1418.87C8412.27 1418.87 8414.04 1418.87 8415.81 1418.87C8419.34 1418.87 8424.64 1417.1 8428.17 1417.1V1450.66C8419.34 1452.43 8410.51 1454.19 8401.68 1452.43C8361.05 1452.43 8355.75 1429.47 8355.75 1395.91H8353.99C8325.73 1438.3 8297.47 1463.03 8235.65 1463.03C8173.83 1463.03 8126.14 1433 8126.14 1367.65C8126.14 1275.81 8214.46 1274.04 8301 1263.44C8334.56 1259.91 8352.22 1254.61 8352.22 1219.29C8352.22 1166.3 8313.36 1152.17 8267.44 1152.17C8217.99 1152.17 8180.9 1175.13 8180.9 1228.12H8140.27ZM8352.22 1275.81H8350.46C8345.16 1284.64 8327.49 1288.17 8316.9 1289.93C8249.78 1302.3 8165 1300.53 8165 1364.12C8166.77 1401.21 8198.56 1429.47 8235.65 1427.7H8237.42C8297.47 1427.7 8352.22 1388.84 8350.46 1325.26L8352.22 1275.81ZM8470.56 1129.21H8507.65V1205.16H8509.42C8527.08 1153.93 8578.3 1120.38 8633.05 1123.91V1164.53C8571.23 1159.23 8518.25 1205.16 8512.95 1266.97C8512.95 1272.27 8512.95 1275.81 8512.95 1281.1V1454.19H8472.33L8470.56 1129.21ZM8670.14 1003.81H8709V1067.39H8668.38L8670.14 1003.81ZM8670.14 1129.21H8709V1454.19H8668.38L8670.14 1129.21ZM8781.42 1228.12C8784.95 1152.17 8839.7 1118.61 8913.88 1118.61C8970.4 1118.61 9033.99 1136.27 9033.99 1222.82V1395.91C9032.22 1408.27 9039.29 1418.87 9051.65 1420.64C9053.42 1420.64 9055.18 1420.64 9056.95 1420.64C9060.48 1420.64 9065.78 1418.87 9069.31 1418.87V1452.43C9060.48 1454.19 9051.65 1455.96 9042.82 1454.19C9002.2 1454.19 8996.9 1431.23 8996.9 1397.68H8995.13C8966.87 1440.06 8938.61 1464.79 8876.79 1464.79C8814.97 1464.79 8767.29 1434.77 8767.29 1369.42C8767.29 1277.57 8855.6 1275.81 8942.14 1265.21C8975.7 1261.68 8993.36 1256.38 8993.36 1221.05C8993.36 1168.06 8954.51 1153.93 8908.59 1153.93C8862.66 1153.93 8822.04 1175.13 8822.04 1228.12H8781.42ZM8993.36 1275.81C8986.3 1284.64 8968.64 1288.17 8958.04 1289.93C8890.92 1302.3 8807.91 1300.53 8807.91 1364.12C8809.68 1401.21 8841.47 1429.47 8878.56 1427.7H8880.33C8940.38 1427.7 8995.13 1388.84 8993.36 1325.26V1275.81Z" fill="white"/>
<path d="M1285.52 767.13C1396.79 767.13 1485.1 857.208 1485.1 966.714C1485.1 1077.99 1395.03 1166.3 1285.52 1166.3C1174.25 1166.3 1085.94 1076.22 1085.94 966.714C1085.94 855.442 1174.25 767.13 1285.52 767.13ZM1285.52 767.13C1396.79 767.13 1485.1 677.052 1485.1 567.546C1485.1 456.273 1395.03 367.961 1285.52 367.961C1174.25 367.961 1085.94 458.039 1085.94 567.546C1085.94 677.052 1174.25 767.13 1285.52 767.13ZM1886.04 565.779C1886.04 454.507 1795.96 366.195 1686.45 366.195C1575.18 366.195 1486.87 456.273 1486.87 565.779C1486.87 677.052 1576.95 765.364 1686.45 765.364C1795.96 767.13 1886.04 677.052 1886.04 565.779ZM884.584 767.13C775.078 767.13 685 855.442 685 966.714C685 1077.99 775.078 1166.3 884.584 1166.3C995.857 1166.3 1084.17 1076.22 1084.17 966.714C1085.94 855.442 995.857 767.13 884.584 767.13ZM1285.52 1567.23C1396.79 1567.23 1485.1 1477.16 1485.1 1367.65C1485.1 1256.38 1395.03 1168.06 1285.52 1168.06C1174.25 1168.06 1085.94 1258.14 1085.94 1367.65C1085.94 1477.16 1174.25 1567.23 1285.52 1567.23ZM1886.04 1367.65C1886.04 1256.38 1795.96 1168.06 1686.45 1168.06C1575.18 1168.06 1486.87 1258.14 1486.87 1367.65C1486.87 1478.92 1576.95 1567.23 1686.45 1567.23C1795.96 1567.23 1886.04 1477.16 1886.04 1367.65ZM5487.39 1569H5528.01V367.961H5487.39V1569Z" fill="#EB5D0B"/>
</g>
<defs>
<clipPath id="clip0_12:2">
<rect width="8384.31" height="1224" fill="white" transform="translate(685 345)"/>
</clipPath>
</defs>
</svg>
